<svg xmlns="http://www.w3.org/2000/svg" viewBox="0 0 818.2 182.66"><defs><style>.cls-1{fill:#a4da21;}.cls-2,.cls-3{fill:#056526;}.cls-3{font-size:120px;font-family:InkFree, Ink Free;}</style></defs><g id="Capa_2" data-name="Capa 2"><g id="Capa_1-2" data-name="Capa 1"><path class="cls-1" d="M776.07,83.61a125,125,0,0,0-30.86,6.92c-9.39,3.5-18,8.31-25.15,15.38-10,9.8-15.14,22-17.43,35.54a110.55,110.55,0,0,0-1,24.32,9.43,9.43,0,0,1,0,1.76c-.09.85.47,2.17-.68,2.41s-1.56-1.07-1.85-2c-3.1-10-6.63-19.85-7.37-30.48-.8-11.52.49-22.59,4.91-33.27,5.61-13.51,15.48-23.09,27.9-30.4,15.43-9.07,32.26-14.91,48.74-21.56C783.85,48,794.51,43.85,803.79,37a26.65,26.65,0,0,0,4.36-3.79c.67-.78,1.44-1.55,2.56-1.31,1.28.28,1.57,1.45,1.76,2.52,1.16,6.78,2.4,13.55,3.4,20.35a209.6,209.6,0,0,1,2.33,30.32c0,17.51-2.07,34.68-9.7,50.73-7.31,15.41-18.88,26.52-34.36,33.57-12.08,5.49-24.86,8-38,8.78a56.4,56.4,0,0,1-9.28.21c-3.26-.33-5.12-2.05-6.18-5.06-4.89-13.87-4.5-27.71.47-41.41,6.5-17.93,18.73-30.91,35.3-40A107.37,107.37,0,0,1,776.07,83.61Z"/><path class="cls-2" d="M688.2,105.7c-.49-16,5.13-30.07,12.19-43.86-1.48,2-3,4-4.43,6.06s-3,4.27-4.35,6.47c-6,9.67-11,19.79-13.2,31.1-2.94,15.44-.31,29.95,8.09,43.19,3.52,5.54,4.79,11.75,6.9,17.73.2.55.37,1.24-.25,1.6s-1.45-.07-2.09-.45a81.74,81.74,0,0,1-16.12-12.41c-9.74-9.7-16.55-21.08-19.09-34.75-2.13-11.5-.43-22.71,2.83-33.76,4.68-15.82,11.75-30.7,18.22-45.81,4-9.25,8-18.5,10.05-28.42a44.81,44.81,0,0,0,.9-9.24c0-3.24,1.38-4,4.06-2.19C711.42,14.19,730,28.47,744.79,47.12q2.26,2.87,4.3,5.9c1.43,2.11,1.18,3-1.25,4a219,219,0,0,0-23.6,11.28c-12.68,7.31-23.77,16.35-31.31,29.16-1.14,2-2,4.08-2.95,6.11C689.63,104.28,689.64,105.26,688.2,105.7Z"/><text class="cls-3" transform="translate(0 134.9)">Nica-<tspan class="cls-1" x="257.75" y="0">Explore</tspan></text></g></g></svg>